<svg width="30" height="30" viewBox="0 0 30 30" fill="none" xmlns="http://www.w3.org/2000/svg">
<g id="vuesax/outline/arrow-right">
<g id="arrow-right">
<path id="Vector" d="M11.1375 25.8375C10.9 25.8375 10.6625 25.75 10.475 25.5625C10.1125 25.2 10.1125 24.6 10.475 24.2375L18.625 16.0875C19.225 15.4875 19.225 14.5125 18.625 13.9125L10.475 5.76252C10.1125 5.40002 10.1125 4.80002 10.475 4.43752C10.8375 4.07502 11.4375 4.07502 11.8 4.43752L19.95 12.5875C20.5875 13.225 20.95 14.0875 20.95 15C20.95 15.9125 20.6 16.775 19.95 17.4125L11.8 25.5625C11.6125 25.7375 11.375 25.8375 11.1375 25.8375Z" fill="#111111"/>
</g>
</g>
</svg>
