<svg width="30" height="30" viewBox="0 0 30 30" fill="none" xmlns="http://www.w3.org/2000/svg">
<g id="vuesax/outline/personalcard">
<g id="personalcard">
<path id="Vector" d="M21.25 27.1875H8.75C3.2375 27.1875 1.5625 25.5125 1.5625 20V10C1.5625 4.4875 3.2375 2.8125 8.75 2.8125H21.25C26.7625 2.8125 28.4375 4.4875 28.4375 10V20C28.4375 25.5125 26.7625 27.1875 21.25 27.1875ZM8.75 4.6875C4.275 4.6875 3.4375 5.5375 3.4375 10V20C3.4375 24.4625 4.275 25.3125 8.75 25.3125H21.25C25.725 25.3125 26.5625 24.4625 26.5625 20V10C26.5625 5.5375 25.725 4.6875 21.25 4.6875H8.75Z" fill="#111111"/>
<path id="Vector_2" d="M23.75 10.9375H17.5C16.9875 10.9375 16.5625 10.5125 16.5625 10C16.5625 9.4875 16.9875 9.0625 17.5 9.0625H23.75C24.2625 9.0625 24.6875 9.4875 24.6875 10C24.6875 10.5125 24.2625 10.9375 23.75 10.9375Z" fill="#111111"/>
<path id="Vector_3" d="M23.75 15.9375H18.75C18.2375 15.9375 17.8125 15.5125 17.8125 15C17.8125 14.4875 18.2375 14.0625 18.75 14.0625H23.75C24.2625 14.0625 24.6875 14.4875 24.6875 15C24.6875 15.5125 24.2625 15.9375 23.75 15.9375Z" fill="#111111"/>
<path id="Vector_4" d="M23.75 20.9375H21.25C20.7375 20.9375 20.3125 20.5125 20.3125 20C20.3125 19.4875 20.7375 19.0625 21.25 19.0625H23.75C24.2625 19.0625 24.6875 19.4875 24.6875 20C24.6875 20.5125 24.2625 20.9375 23.75 20.9375Z" fill="#111111"/>
<path id="Vector_5" d="M10.6268 15.0523C8.86426 15.0523 7.42676 13.6148 7.42676 11.8523C7.42676 10.0898 8.86426 8.65234 10.6268 8.65234C12.3893 8.65234 13.8268 10.0898 13.8268 11.8523C13.8268 13.6148 12.3893 15.0523 10.6268 15.0523ZM10.6268 10.5273C9.90176 10.5273 9.30176 11.1273 9.30176 11.8523C9.30176 12.5773 9.90176 13.1773 10.6268 13.1773C11.3518 13.1773 11.9518 12.5773 11.9518 11.8523C11.9518 11.1273 11.3518 10.5273 10.6268 10.5273Z" fill="#111111"/>
<path id="Vector_6" d="M15.0023 21.3521C14.5273 21.3521 14.1148 20.9896 14.0648 20.5021C13.9273 19.1521 12.8398 18.0646 11.4773 17.9396C10.9023 17.8896 10.3273 17.8896 9.75232 17.9396C8.38982 18.0646 7.30232 19.1396 7.16482 20.5021C7.11482 21.0146 6.65232 21.4021 6.13982 21.3396C5.62732 21.2896 5.25232 20.8271 5.30232 20.3146C5.52732 18.0646 7.31482 16.2771 9.57732 16.0771C10.2648 16.0146 10.9648 16.0146 11.6523 16.0771C13.9023 16.2896 15.7023 18.0771 15.9273 20.3146C15.9773 20.8271 15.6023 21.2896 15.0898 21.3396C15.0648 21.3521 15.0273 21.3521 15.0023 21.3521Z" fill="#111111"/>
</g>
</g>
</svg>
