<svg width="25" height="24" viewBox="0 0 25 24" fill="none" xmlns="http://www.w3.org/2000/svg">
<g id="vuesax/outline/camera">
<g id="camera">
<path id="Vector" d="M17.7397 22.75H7.25969C4.45969 22.75 2.67969 21.08 2.51969 18.29L1.99969 10.04C1.91969 8.79 2.34969 7.59 3.20969 6.68C4.05969 5.77 5.25969 5.25 6.49969 5.25C6.81969 5.25 7.12969 5.06 7.27969 4.76L7.99969 3.33C8.58969 2.16 10.0697 1.25 11.3597 1.25H13.6497C14.9397 1.25 16.4097 2.16 16.9997 3.32L17.7197 4.78C17.8697 5.06 18.1697 5.25 18.4997 5.25C19.7397 5.25 20.9397 5.77 21.7897 6.68C22.6497 7.6 23.0797 8.79 22.9997 10.04L22.4797 18.3C22.2997 21.13 20.5697 22.75 17.7397 22.75ZM11.3597 2.75C10.6197 2.75 9.67969 3.33 9.33969 4L8.61969 5.44C8.19969 6.25 7.38969 6.75 6.49969 6.75C5.65969 6.75 4.87968 7.09 4.29969 7.7C3.72969 8.31 3.43969 9.11 3.49969 9.94L4.01969 18.2C4.13968 20.22 5.22969 21.25 7.25969 21.25H17.7397C19.7597 21.25 20.8497 20.22 20.9797 18.2L21.4997 9.94C21.5497 9.11 21.2697 8.31 20.6997 7.7C20.1197 7.09 19.3397 6.75 18.4997 6.75C17.6097 6.75 16.7997 6.25 16.3797 5.46L15.6497 4C15.3197 3.34 14.3797 2.76 13.6397 2.76H11.3597V2.75Z" fill="#111111"/>
<path id="Vector_2" d="M14 8.75H11C10.59 8.75 10.25 8.41 10.25 8C10.25 7.59 10.59 7.25 11 7.25H14C14.41 7.25 14.75 7.59 14.75 8C14.75 8.41 14.41 8.75 14 8.75Z" fill="#111111"/>
<path id="Vector_3" d="M12.5 18.75C10.29 18.75 8.5 16.96 8.5 14.75C8.5 12.54 10.29 10.75 12.5 10.75C14.71 10.75 16.5 12.54 16.5 14.75C16.5 16.96 14.71 18.75 12.5 18.75ZM12.5 12.25C11.12 12.25 10 13.37 10 14.75C10 16.13 11.12 17.25 12.5 17.25C13.88 17.25 15 16.13 15 14.75C15 13.37 13.88 12.25 12.5 12.25Z" fill="#111111"/>
</g>
</g>
</svg>
