<svg width="31" height="30" viewBox="0 0 31 30" fill="none" xmlns="http://www.w3.org/2000/svg">
<g id="vuesax/outline/messages-2">
<g id="messages-2">
<path id="Vector" d="M22.8376 27.3377C22.4501 27.3377 22.0626 27.2377 21.7126 27.0252L16.7001 24.0502C16.1751 24.0377 15.6501 24.0002 15.1501 23.9252C14.8126 23.8752 14.5251 23.6502 14.4001 23.3251C14.2751 23.0001 14.3376 22.6502 14.5626 22.3876C15.3876 21.4251 15.8126 20.2752 15.8126 19.0502C15.8126 16.0252 13.1501 13.5627 9.8751 13.5627C8.6501 13.5627 7.47509 13.9002 6.48759 14.5502C6.21259 14.7252 5.87509 14.7502 5.57509 14.6127C5.28759 14.4752 5.0751 14.2002 5.0376 13.8752C5.0001 13.5252 4.9751 13.1752 4.9751 12.8127C4.9751 6.61268 10.3501 1.5752 16.9501 1.5752C23.5501 1.5752 28.9251 6.61268 28.9251 12.8127C28.9251 16.2127 27.3501 19.3377 24.5751 21.4752L25.0001 24.8752C25.1001 25.7252 24.7251 26.5252 24.0126 26.9877C23.6626 27.2127 23.2501 27.3377 22.8376 27.3377ZM16.9376 22.1627C17.1126 22.1502 17.2876 22.2002 17.4376 22.3002L22.6751 25.4127C22.8126 25.5002 22.9251 25.4627 23.0001 25.4127C23.0626 25.3752 23.1626 25.2752 23.1376 25.1002L22.6501 21.1502C22.6126 20.8002 22.7626 20.4627 23.0376 20.2627C25.5876 18.4752 27.0501 15.7502 27.0501 12.7877C27.0501 7.62516 22.5251 3.42517 16.9501 3.42517C11.5876 3.42517 7.18759 7.32522 6.86259 12.2252C7.80009 11.8627 8.8126 11.6627 9.8626 11.6627C14.1751 11.6627 17.6751 14.9626 17.6751 19.0251C17.6876 20.1251 17.4251 21.1877 16.9376 22.1627Z" fill="white"/>
<path id="Vector_2" d="M6.22472 28.4378C5.89972 28.4378 5.58721 28.3503 5.29971 28.1628C4.73721 27.8003 4.43722 27.1753 4.51222 26.5128L4.76222 24.5877C3.07472 23.2127 2.07471 21.1752 2.07471 19.0377C2.07471 16.6002 3.34972 14.3253 5.48722 12.9628C6.77472 12.1253 8.29971 11.6753 9.88721 11.6753C14.1997 11.6753 17.6997 14.9752 17.6997 19.0377C17.6997 20.6877 17.0997 22.3128 15.9997 23.6003C14.5872 25.3128 12.4747 26.3127 10.1497 26.3877L7.09971 28.2003C6.82471 28.3628 6.52472 28.4378 6.22472 28.4378ZM9.87471 13.5503C8.64971 13.5503 7.47471 13.8878 6.48721 14.5378C4.88721 15.5628 3.93721 17.2377 3.93721 19.0377C3.93721 20.7752 4.78722 22.3628 6.28722 23.3878C6.57472 23.5878 6.72471 23.9252 6.68721 24.2752L6.41221 26.4128L9.39971 24.6378C9.54971 24.5503 9.71221 24.5002 9.87471 24.5002C11.7122 24.5002 13.4497 23.7128 14.5497 22.3753C15.3747 21.4003 15.8122 20.2502 15.8122 19.0252C15.8122 16.0127 13.1497 13.5503 9.87471 13.5503Z" fill="white"/>
</g>
</g>
</svg>
