<svg width="31" height="30" viewBox="0 0 31 30" fill="none" xmlns="http://www.w3.org/2000/svg">
<g id="vuesax/outline/messages-2">
<g id="messages-2">
<path id="Vector" d="M22.8376 27.3374C22.4501 27.3374 22.0626 27.2374 21.7126 27.0249L16.7001 24.0499C16.1751 24.0374 15.6501 24 15.1501 23.925C14.8126 23.875 14.5251 23.6499 14.4001 23.3249C14.2751 22.9999 14.3376 22.6499 14.5626 22.3874C15.3876 21.4249 15.8126 20.2749 15.8126 19.0499C15.8126 16.0249 13.1501 13.5624 9.8751 13.5624C8.6501 13.5624 7.47509 13.9 6.48759 14.55C6.21259 14.725 5.87509 14.7499 5.57509 14.6124C5.28759 14.4749 5.0751 14.1999 5.0376 13.8749C5.0001 13.5249 4.9751 13.1749 4.9751 12.8124C4.9751 6.61244 10.3501 1.57495 16.9501 1.57495C23.5501 1.57495 28.9251 6.61244 28.9251 12.8124C28.9251 16.2124 27.3501 19.3374 24.5751 21.4749L25.0001 24.875C25.1001 25.725 24.7251 26.525 24.0126 26.9875C23.6626 27.2125 23.2501 27.3374 22.8376 27.3374ZM16.9376 22.1624C17.1126 22.1499 17.2876 22.2 17.4376 22.3L22.6751 25.4125C22.8126 25.5 22.9251 25.4625 23.0001 25.4125C23.0626 25.375 23.1626 25.275 23.1376 25.1L22.6501 21.1499C22.6126 20.7999 22.7626 20.4625 23.0376 20.2625C25.5876 18.475 27.0501 15.7499 27.0501 12.7874C27.0501 7.62491 22.5251 3.42493 16.9501 3.42493C11.5876 3.42493 7.18759 7.32498 6.86259 12.225C7.80009 11.8625 8.8126 11.6625 9.8626 11.6625C14.1751 11.6625 17.6751 14.9624 17.6751 19.0249C17.6876 20.1249 17.4251 21.1874 16.9376 22.1624Z" fill="#111111"/>
<path id="Vector_2" d="M6.22472 28.4375C5.89972 28.4375 5.58721 28.3501 5.29971 28.1626C4.73721 27.8001 4.43722 27.175 4.51222 26.5125L4.76222 24.5875C3.07472 23.2125 2.07471 21.175 2.07471 19.0375C2.07471 16.6 3.34972 14.325 5.48722 12.9625C6.77472 12.125 8.29971 11.675 9.88721 11.675C14.1997 11.675 17.6997 14.975 17.6997 19.0375C17.6997 20.6875 17.0997 22.3125 15.9997 23.6C14.5872 25.3125 12.4747 26.3125 10.1497 26.3875L7.09971 28.2C6.82471 28.3625 6.52472 28.4375 6.22472 28.4375ZM9.87471 13.55C8.64971 13.55 7.47471 13.8875 6.48721 14.5375C4.88721 15.5625 3.93721 17.2375 3.93721 19.0375C3.93721 20.775 4.78722 22.3625 6.28722 23.3875C6.57472 23.5875 6.72471 23.925 6.68721 24.275L6.41221 26.4125L9.39971 24.6375C9.54971 24.55 9.71221 24.5 9.87471 24.5C11.7122 24.5 13.4497 23.7125 14.5497 22.375C15.3747 21.4 15.8122 20.25 15.8122 19.025C15.8122 16.0125 13.1497 13.55 9.87471 13.55Z" fill="#111111"/>
</g>
</g>
</svg>
