<svg width="31" height="30" viewBox="0 0 31 30" fill="none" xmlns="http://www.w3.org/2000/svg">
<g id="vuesax/outline/messages-2">
<g id="messages-2">
<path id="Vector" d="M22.8376 27.3375C22.4501 27.3375 22.0626 27.2375 21.7126 27.025L16.7001 24.05C16.1751 24.0375 15.6501 24 15.1501 23.925C14.8126 23.875 14.5251 23.65 14.4001 23.325C14.2751 23 14.3376 22.65 14.5626 22.3875C15.3876 21.425 15.8126 20.275 15.8126 19.05C15.8126 16.025 13.1501 13.5625 9.8751 13.5625C8.6501 13.5625 7.47509 13.9 6.48759 14.55C6.21259 14.725 5.87509 14.75 5.57509 14.6125C5.28759 14.475 5.0751 14.2 5.0376 13.875C5.0001 13.525 4.9751 13.175 4.9751 12.8125C4.9751 6.6125 10.3501 1.57501 16.9501 1.57501C23.5501 1.57501 28.9251 6.6125 28.9251 12.8125C28.9251 16.2125 27.3501 19.3375 24.5751 21.475L25.0001 24.875C25.1001 25.725 24.7251 26.525 24.0126 26.9875C23.6626 27.2125 23.2501 27.3375 22.8376 27.3375ZM16.9376 22.1625C17.1126 22.15 17.2876 22.2 17.4376 22.3L22.6751 25.4125C22.8126 25.5 22.9251 25.4625 23.0001 25.4125C23.0626 25.375 23.1626 25.275 23.1376 25.1L22.6501 21.15C22.6126 20.8 22.7626 20.4625 23.0376 20.2625C25.5876 18.475 27.0501 15.75 27.0501 12.7875C27.0501 7.62498 22.5251 3.42499 16.9501 3.42499C11.5876 3.42499 7.18759 7.32504 6.86259 12.225C7.80009 11.8625 8.8126 11.6625 9.8626 11.6625C14.1751 11.6625 17.6751 14.9625 17.6751 19.025C17.6876 20.125 17.4251 21.1875 16.9376 22.1625Z" fill="white"/>
<path id="Vector_2" d="M6.22472 28.4376C5.89972 28.4376 5.58721 28.3501 5.29971 28.1626C4.73721 27.8001 4.43722 27.1751 4.51222 26.5126L4.76222 24.5876C3.07472 23.2126 2.07471 21.1751 2.07471 19.0376C2.07471 16.6001 3.34972 14.3251 5.48722 12.9626C6.77472 12.1251 8.29971 11.6751 9.88721 11.6751C14.1997 11.6751 17.6997 14.9751 17.6997 19.0376C17.6997 20.6876 17.0997 22.3126 15.9997 23.6001C14.5872 25.3126 12.4747 26.3126 10.1497 26.3876L7.09971 28.2001C6.82471 28.3626 6.52472 28.4376 6.22472 28.4376ZM9.87471 13.5501C8.64971 13.5501 7.47471 13.8876 6.48721 14.5376C4.88721 15.5626 3.93721 17.2376 3.93721 19.0376C3.93721 20.7751 4.78722 22.3626 6.28722 23.3876C6.57472 23.5876 6.72471 23.9251 6.68721 24.2751L6.41221 26.4126L9.39971 24.6376C9.54971 24.5501 9.71221 24.5 9.87471 24.5C11.7122 24.5 13.4497 23.7126 14.5497 22.3751C15.3747 21.4001 15.8122 20.25 15.8122 19.025C15.8122 16.0125 13.1497 13.5501 9.87471 13.5501Z" fill="white"/>
</g>
</g>
</svg>
