<svg width="58" height="57" viewBox="0 0 58 57" fill="none" xmlns="http://www.w3.org/2000/svg">
<g id="vuesax/outline/add">
<g id="add">
<path id="Vector" d="M37.097 22.097L22.9549 36.2391C22.4717 36.7223 21.6703 36.7223 21.1871 36.2391C20.7039 35.7559 20.7039 34.9545 21.1871 34.4713L35.3292 20.3292C35.8124 19.846 36.6138 19.846 37.097 20.3292C37.5802 20.8124 37.5802 21.6138 37.097 22.097Z" fill="white"/>
<path id="Vector_2" d="M37.097 36.2392C36.6138 36.7223 35.8124 36.7223 35.3292 36.2392L21.1871 22.097C20.7039 21.6138 20.7039 20.8124 21.1871 20.3293C21.6703 19.8461 22.4717 19.8461 22.9549 20.3293L37.097 34.4714C37.5802 34.9546 37.5802 35.756 37.097 36.2392Z" fill="white"/>
</g>
</g>
</svg>
