<svg width="44" height="44" viewBox="0 0 44 44" fill="none" xmlns="http://www.w3.org/2000/svg">
<g id="vuesax/outline/gallery-add">
<g id="gallery-add">
<path id="Vector" d="M16.4999 19.7604C13.7133 19.7604 11.4583 17.5567 11.4583 14.8333C11.4583 12.11 13.7133 9.90625 16.4999 9.90625C19.2866 9.90625 21.5416 12.11 21.5416 14.8333C21.5416 17.5567 19.2866 19.7604 16.4999 19.7604ZM16.4999 12.5937C15.2349 12.5937 14.2083 13.5971 14.2083 14.8333C14.2083 16.0696 15.2349 17.0729 16.4999 17.0729C17.7649 17.0729 18.7916 16.0696 18.7916 14.8333C18.7916 13.5971 17.7649 12.5937 16.4999 12.5937Z" fill="#B5B5B5"/>
<path id="Vector_2" d="M27.5001 41.2605H16.5001C6.54508 41.2605 2.29175 37.1038 2.29175 27.375V16.625C2.29175 6.89629 6.54508 2.73962 16.5001 2.73962H23.8334C24.5851 2.73962 25.2084 3.34879 25.2084 4.08337C25.2084 4.81796 24.5851 5.42712 23.8334 5.42712H16.5001C8.04841 5.42712 5.04175 8.36546 5.04175 16.625V27.375C5.04175 35.6346 8.04841 38.573 16.5001 38.573H27.5001C35.9517 38.573 38.9584 35.6346 38.9584 27.375V18.4167C38.9584 17.6821 39.5817 17.073 40.3334 17.073C41.0851 17.073 41.7084 17.6821 41.7084 18.4167V27.375C41.7084 37.1038 37.4551 41.2605 27.5001 41.2605Z" fill="#B5B5B5"/>
<path id="Vector_3" d="M38.9583 10.8021H28.875C28.1233 10.8021 27.5 10.193 27.5 9.45837C27.5 8.72379 28.1233 8.11462 28.875 8.11462H38.9583C39.71 8.11462 40.3333 8.72379 40.3333 9.45837C40.3333 10.193 39.71 10.8021 38.9583 10.8021Z" fill="#B5B5B5"/>
<path id="Vector_4" d="M33.9167 15.7292C33.1651 15.7292 32.5417 15.12 32.5417 14.3854V4.53125C32.5417 3.79667 33.1651 3.1875 33.9167 3.1875C34.6684 3.1875 35.2917 3.79667 35.2917 4.53125V14.3854C35.2917 15.12 34.6684 15.7292 33.9167 15.7292Z" fill="#B5B5B5"/>
<path id="Vector_5" d="M4.89497 35.7958C4.45497 35.7958 4.01497 35.5808 3.7583 35.2045C3.33663 34.5954 3.50163 33.7533 4.12497 33.3412L13.1633 27.4108C15.1433 26.1208 17.875 26.2641 19.6716 27.7512L20.2766 28.2708C21.1933 29.0412 22.7516 29.0412 23.65 28.2708L31.2766 21.8745C33.2383 20.2441 36.2816 20.2441 38.2433 21.8745L41.2316 24.3829C41.8 24.8666 41.8733 25.7087 41.3783 26.282C40.8833 26.8375 40.0216 26.9091 39.435 26.4254L36.4466 23.917C35.53 23.1466 33.9716 23.1466 33.0733 23.917L25.4466 30.3133C23.5033 31.9437 20.4416 31.9437 18.48 30.3133L17.875 29.7937C17.0316 29.095 15.6383 29.0233 14.7033 29.6504L5.6833 35.5808C5.42663 35.7241 5.15163 35.7958 4.89497 35.7958Z" fill="#B5B5B5"/>
</g>
</g>
</svg>
