<svg width="30" height="30" viewBox="0 0 30 30" fill="none" xmlns="http://www.w3.org/2000/svg">
<g id="video-horizontal">
<path id="Vector" d="M18.75 28.4375H11.25C4.4625 28.4375 1.5625 25.5375 1.5625 18.75V11.25C1.5625 4.4625 4.4625 1.5625 11.25 1.5625H18.75C25.5375 1.5625 28.4375 4.4625 28.4375 11.25V18.75C28.4375 25.5375 25.5375 28.4375 18.75 28.4375ZM11.25 3.4375C5.4875 3.4375 3.4375 5.4875 3.4375 11.25V18.75C3.4375 24.5125 5.4875 26.5625 11.25 26.5625H18.75C24.5125 26.5625 26.5625 24.5125 26.5625 18.75V11.25C26.5625 5.4875 24.5125 3.4375 18.75 3.4375H11.25Z" fill="#111111"/>
<path id="Vector_2" d="M26.8494 22.3242H3.14941C2.63691 22.3242 2.21191 21.8992 2.21191 21.3867C2.21191 20.8742 2.63691 20.4492 3.14941 20.4492H26.8494C27.3619 20.4492 27.7869 20.8742 27.7869 21.3867C27.7869 21.8992 27.3744 22.3242 26.8494 22.3242Z" fill="#111111"/>
<path id="Vector_3" d="M26.8494 9.82422H3.14941C2.63691 9.82422 2.21191 9.39922 2.21191 8.88672C2.21191 8.37422 2.62441 7.94922 3.14941 7.94922H26.8494C27.3619 7.94922 27.7869 8.37422 27.7869 8.88672C27.7869 9.39922 27.3744 9.82422 26.8494 9.82422Z" fill="#111111"/>
<path id="Vector_4" d="M8.71094 27.7617C8.19844 27.7617 7.77344 27.3367 7.77344 26.8242V21.3867C7.77344 20.8742 8.19844 20.4492 8.71094 20.4492C9.22344 20.4492 9.64844 20.8742 9.64844 21.3867V26.8242C9.64844 27.3492 9.22344 27.7617 8.71094 27.7617Z" fill="#111111"/>
<path id="Vector_5" d="M15 28.3992C14.4875 28.3992 14.0625 27.9742 14.0625 27.4617V21.3867C14.0625 20.8742 14.4875 20.4492 15 20.4492C15.5125 20.4492 15.9375 20.8742 15.9375 21.3867V27.4617C15.9375 27.9742 15.5125 28.3992 15 28.3992Z" fill="#111111"/>
<path id="Vector_6" d="M21.2109 27.8367C20.6984 27.8367 20.2734 27.4117 20.2734 26.8992V21.3867C20.2734 20.8742 20.6984 20.4492 21.2109 20.4492C21.7234 20.4492 22.1484 20.8742 22.1484 21.3867V26.8992C22.1484 27.4242 21.7234 27.8367 21.2109 27.8367Z" fill="#111111"/>
<path id="Vector_7" d="M8.71094 9.01172C8.19844 9.01172 7.77344 8.58672 7.77344 8.07422V2.63672C7.77344 2.12422 8.19844 1.69922 8.71094 1.69922C9.22344 1.69922 9.64844 2.12422 9.64844 2.63672V8.07422C9.64844 8.59922 9.22344 9.01172 8.71094 9.01172Z" fill="#111111"/>
<path id="Vector_8" d="M15 9.64922C14.4875 9.64922 14.0625 9.22422 14.0625 8.71172V2.63672C14.0625 2.12422 14.4875 1.69922 15 1.69922C15.5125 1.69922 15.9375 2.12422 15.9375 2.63672V8.71172C15.9375 9.22422 15.5125 9.64922 15 9.64922Z" fill="#111111"/>
<path id="Vector_9" d="M15 23.4766C14.4875 23.4766 14.0625 23.0516 14.0625 22.5391V8.78906C14.0625 8.27656 14.4875 7.85156 15 7.85156C15.5125 7.85156 15.9375 8.27656 15.9375 8.78906V22.5391C15.9375 23.0516 15.5125 23.4766 15 23.4766Z" fill="#111111"/>
<path id="Vector_10" d="M21.2109 9.08672C20.6984 9.08672 20.2734 8.66172 20.2734 8.14922V2.63672C20.2734 2.12422 20.6984 1.69922 21.2109 1.69922C21.7234 1.69922 22.1484 2.12422 22.1484 2.63672V8.14922C22.1484 8.67422 21.7234 9.08672 21.2109 9.08672Z" fill="#111111"/>
</g>
</svg>
