<svg width="31" height="30" viewBox="0 0 31 30" fill="none" xmlns="http://www.w3.org/2000/svg">
<path d="M22.7375 28.4375H8.2625C4.8375 28.4375 2.0625 25.65 2.0625 22.225V12.9625C2.0625 11.2625 3.1125 9.12497 4.4625 8.07497L11.2 2.82497C13.225 1.24997 16.4625 1.17497 18.5625 2.64997L26.2875 8.06247C27.775 9.09997 28.9375 11.325 28.9375 13.1375V22.2375C28.9375 25.65 26.1625 28.4375 22.7375 28.4375ZM12.35 4.29997L5.6125 9.54997C4.725 10.25 3.9375 11.8375 3.9375 12.9625V22.225C3.9375 24.6125 5.875 26.5625 8.2625 26.5625H22.7375C25.125 26.5625 27.0625 24.625 27.0625 22.2375V13.1375C27.0625 11.9375 26.2 10.275 25.2125 9.59997L17.4875 4.18747C16.0625 3.18747 13.7125 3.23747 12.35 4.29997Z" fill="#111111"/>
<path d="M15.5 23.4375C14.9875 23.4375 14.5625 23.0125 14.5625 22.5V18.75C14.5625 18.2375 14.9875 17.8125 15.5 17.8125C16.0125 17.8125 16.4375 18.2375 16.4375 18.75V22.5C16.4375 23.0125 16.0125 23.4375 15.5 23.4375Z" fill="#111111"/>
</svg>
