<svg width="24" height="24" viewBox="0 0 24 24" fill="none" xmlns="http://www.w3.org/2000/svg">
<g id="system-uicons:location">
<g id="Group">
<path id="Vector" fill-rule="evenodd" clip-rule="evenodd" d="M12 21.1886L12.7211 20.376C13.5394 19.4389 14.2754 18.5498 14.9303 17.704L15.4708 16.9909C17.728 13.9497 18.8571 11.536 18.8571 9.75204C18.8571 5.94403 15.7874 2.85718 12 2.85718C8.21254 2.85718 5.14282 5.94403 5.14282 9.75204C5.14282 11.536 6.27197 13.9497 8.52911 16.9909L9.06968 17.704C10.0039 18.9011 10.9813 20.0626 12 21.1886Z" stroke="#111111" stroke-linecap="round" stroke-linejoin="round"/>
<path id="Vector_2" d="M12 12.5715C13.5779 12.5715 14.8571 11.2923 14.8571 9.71432C14.8571 8.13636 13.5779 6.85718 12 6.85718C10.422 6.85718 9.14282 8.13636 9.14282 9.71432C9.14282 11.2923 10.422 12.5715 12 12.5715Z" stroke="#111111" stroke-linecap="round" stroke-linejoin="round"/>
</g>
</g>
</svg>
