<svg width="43" height="44" viewBox="0 0 43 44" fill="none" xmlns="http://www.w3.org/2000/svg">
<g id="vuesax/outline/minus-square">
<g id="minus-square">
<path id="Vector" d="M26.8749 41.2605H16.1249C6.39617 41.2605 2.2395 37.1038 2.2395 27.375V16.625C2.2395 6.89629 6.39617 2.73962 16.1249 2.73962H26.8749C36.6037 2.73962 40.7603 6.89629 40.7603 16.625V27.375C40.7603 37.1038 36.6037 41.2605 26.8749 41.2605ZM16.1249 5.42712C7.86534 5.42712 4.927 8.36546 4.927 16.625V27.375C4.927 35.6346 7.86534 38.573 16.1249 38.573H26.8749C35.1345 38.573 38.0728 35.6346 38.0728 27.375V16.625C38.0728 8.36546 35.1345 5.42712 26.8749 5.42712H16.1249Z" fill="#B5B5B5"/>
</g>
</g>
</svg>
