<svg width="31" height="30" viewBox="0 0 31 30" fill="none" xmlns="http://www.w3.org/2000/svg">
<g id="vuesax/outline/notification">
<g id="notification">
<path id="Vector" d="M15.525 25.6624C12.6125 25.6624 9.69996 25.1999 6.93746 24.2749C5.88746 23.9124 5.08746 23.1749 4.73746 22.2124C4.37496 21.2499 4.49996 20.1874 5.07496 19.2374L6.51246 16.8499C6.81246 16.3499 7.08746 15.3499 7.08746 14.7624V11.1499C7.08746 6.4999 10.875 2.7124 15.525 2.7124C20.175 2.7124 23.9625 6.4999 23.9625 11.1499V14.7624C23.9625 15.3374 24.2375 16.3499 24.5375 16.8624L25.9625 19.2374C26.5 20.1374 26.6 21.2249 26.2375 22.2124C25.875 23.1999 25.0875 23.9499 24.1 24.2749C21.35 25.1999 18.4375 25.6624 15.525 25.6624ZM15.525 4.5874C11.9125 4.5874 8.96246 7.5249 8.96246 11.1499V14.7624C8.96246 15.6749 8.58746 17.0249 8.12496 17.8124L6.68746 20.1999C6.41246 20.6624 6.33746 21.1499 6.49996 21.5624C6.64996 21.9874 7.02496 22.3124 7.53746 22.4874C12.7625 24.2374 18.3 24.2374 23.525 22.4874C23.975 22.3374 24.325 21.9999 24.4875 21.5499C24.65 21.0999 24.6125 20.6124 24.3625 20.1999L22.925 17.8124C22.45 16.9999 22.0875 15.6624 22.0875 14.7499V11.1499C22.0875 7.5249 19.15 4.5874 15.525 4.5874Z" fill="#111111"/>
<path id="Vector_2" d="M17.85 4.9251C17.7625 4.9251 17.675 4.9126 17.5875 4.8876C17.225 4.7876 16.875 4.7126 16.5375 4.6626C15.475 4.5251 14.45 4.6001 13.4875 4.8876C13.1375 5.0001 12.7625 4.8876 12.525 4.6251C12.2875 4.3626 12.2125 3.9876 12.35 3.6501C12.8625 2.3376 14.1125 1.4751 15.5375 1.4751C16.9625 1.4751 18.2125 2.3251 18.725 3.6501C18.85 3.9876 18.7875 4.3626 18.55 4.6251C18.3625 4.8251 18.1 4.9251 17.85 4.9251Z" fill="#111111"/>
<path id="Vector_3" d="M15.525 28.5125C14.2875 28.5125 13.0875 28.0125 12.2125 27.1375C11.3375 26.2625 10.8375 25.0625 10.8375 23.825H12.7125C12.7125 24.5625 13.0125 25.2875 13.5375 25.8125C14.0625 26.3375 14.7875 26.6375 15.525 26.6375C17.075 26.6375 18.3375 25.375 18.3375 23.825H20.2125C20.2125 26.4125 18.1125 28.5125 15.525 28.5125Z" fill="#111111"/>
</g>
</g>
</svg>
