<svg width="31" height="30" viewBox="0 0 31 30" fill="none" xmlns="http://www.w3.org/2000/svg">
<g id="vuesax/outline/notification">
<g id="notification">
<path id="Vector" d="M15.5251 25.6625C12.6126 25.6625 9.70008 25.2 6.93758 24.275C5.88758 23.9125 5.08758 23.175 4.73758 22.2125C4.37508 21.25 4.50008 20.1875 5.07508 19.2375L6.51258 16.85C6.81258 16.35 7.08758 15.35 7.08758 14.7625V11.15C7.08758 6.50002 10.8751 2.71252 15.5251 2.71252C20.1751 2.71252 23.9626 6.50002 23.9626 11.15V14.7625C23.9626 15.3375 24.2376 16.35 24.5376 16.8625L25.9626 19.2375C26.5001 20.1375 26.6001 21.225 26.2376 22.2125C25.8751 23.2 25.0876 23.95 24.1001 24.275C21.3501 25.2 18.4376 25.6625 15.5251 25.6625ZM15.5251 4.58752C11.9126 4.58752 8.96258 7.52502 8.96258 11.15V14.7625C8.96258 15.675 8.58758 17.025 8.12508 17.8125L6.68758 20.2C6.41258 20.6625 6.33758 21.15 6.50008 21.5625C6.65008 21.9875 7.02508 22.3125 7.53758 22.4875C12.7626 24.2375 18.3001 24.2375 23.5251 22.4875C23.9751 22.3375 24.3251 22 24.4876 21.55C24.6501 21.1 24.6126 20.6125 24.3626 20.2L22.9251 17.8125C22.4501 17 22.0876 15.6625 22.0876 14.75V11.15C22.0876 7.52502 19.1501 4.58752 15.5251 4.58752Z" fill="white"/>
<path id="Vector_2" d="M17.85 4.92498C17.7625 4.92498 17.675 4.91248 17.5875 4.88748C17.225 4.78748 16.875 4.71248 16.5375 4.66248C15.475 4.52498 14.45 4.59998 13.4875 4.88748C13.1375 4.99998 12.7625 4.88748 12.525 4.62498C12.2875 4.36248 12.2125 3.98748 12.35 3.64998C12.8625 2.33748 14.1125 1.47498 15.5375 1.47498C16.9625 1.47498 18.2125 2.32498 18.725 3.64998C18.85 3.98748 18.7875 4.36248 18.55 4.62498C18.3625 4.82498 18.1 4.92498 17.85 4.92498Z" fill="white"/>
<path id="Vector_3" d="M15.5249 28.5125C14.2874 28.5125 13.0874 28.0125 12.2124 27.1375C11.3374 26.2625 10.8374 25.0625 10.8374 23.825H12.7124C12.7124 24.5625 13.0124 25.2875 13.5374 25.8125C14.0624 26.3375 14.7874 26.6375 15.5249 26.6375C17.0749 26.6375 18.3374 25.375 18.3374 23.825H20.2124C20.2124 26.4125 18.1124 28.5125 15.5249 28.5125Z" fill="white"/>
</g>
</g>
</svg>
