<svg width="30" height="30" viewBox="0 0 30 30" fill="none" xmlns="http://www.w3.org/2000/svg">
<g id="vuesax/outline/lock">
<g id="lock">
<path id="Vector" d="M22.5 13.4375C21.9875 13.4375 21.5625 13.0125 21.5625 12.5V10C21.5625 6.0625 20.45 3.4375 15 3.4375C9.55 3.4375 8.4375 6.0625 8.4375 10V12.5C8.4375 13.0125 8.0125 13.4375 7.5 13.4375C6.9875 13.4375 6.5625 13.0125 6.5625 12.5V10C6.5625 6.375 7.4375 1.5625 15 1.5625C22.5625 1.5625 23.4375 6.375 23.4375 10V12.5C23.4375 13.0125 23.0125 13.4375 22.5 13.4375Z" fill="#111111"/>
<path id="Vector_2" d="M15 24.0625C12.7625 24.0625 10.9375 22.2375 10.9375 20C10.9375 17.7625 12.7625 15.9375 15 15.9375C17.2375 15.9375 19.0625 17.7625 19.0625 20C19.0625 22.2375 17.2375 24.0625 15 24.0625ZM15 17.8125C13.8 17.8125 12.8125 18.8 12.8125 20C12.8125 21.2 13.8 22.1875 15 22.1875C16.2 22.1875 17.1875 21.2 17.1875 20C17.1875 18.8 16.2 17.8125 15 17.8125Z" fill="#111111"/>
<path id="Vector_3" d="M21.25 28.4375H8.75C3.2375 28.4375 1.5625 26.7625 1.5625 21.25V18.75C1.5625 13.2375 3.2375 11.5625 8.75 11.5625H21.25C26.7625 11.5625 28.4375 13.2375 28.4375 18.75V21.25C28.4375 26.7625 26.7625 28.4375 21.25 28.4375ZM8.75 13.4375C4.275 13.4375 3.4375 14.2875 3.4375 18.75V21.25C3.4375 25.7125 4.275 26.5625 8.75 26.5625H21.25C25.725 26.5625 26.5625 25.7125 26.5625 21.25V18.75C26.5625 14.2875 25.725 13.4375 21.25 13.4375H8.75Z" fill="#111111"/>
</g>
</g>
</svg>
