<svg width="44" height="44" viewBox="0 0 44 44" fill="none" xmlns="http://www.w3.org/2000/svg">
<g id="vuesax/outline/send">
<g id="send">
<path id="Vector" d="M9.91832 39.4688C7.86499 39.4688 6.56332 38.788 5.73832 37.9817C4.12499 36.4051 2.98832 33.0546 6.61832 25.9417L8.21332 22.8421C8.41499 22.4301 8.41499 21.5701 8.21332 21.158L6.61832 18.0584C2.96999 10.9455 4.12499 7.57714 5.73832 6.01839C7.33332 4.44172 10.78 3.31297 18.04 6.87839L33.7333 14.5467C37.6383 16.4459 39.7833 19.0976 39.7833 22.0001C39.7833 24.9026 37.6383 27.5542 33.7517 29.4534L18.0583 37.1217C14.5017 38.8596 11.8617 39.4688 9.91832 39.4688ZM9.91832 7.2188C8.92832 7.2188 8.15832 7.45172 7.68165 7.91755C6.34332 9.20755 6.87499 12.558 9.07499 16.8401L10.67 19.9576C11.2567 21.1221 11.2567 22.878 10.67 24.0426L9.07499 27.1421C6.87499 31.4421 6.34332 34.7746 7.68165 36.0646C9.00165 37.3726 12.43 36.853 16.83 34.703L32.5233 27.0346C35.4017 25.6371 37.0333 23.7917 37.0333 21.9821C37.0333 20.1726 35.3833 18.3271 32.505 16.9296L16.8117 9.27922C14.025 7.91755 11.6233 7.2188 9.91832 7.2188Z" fill="white"/>
<path id="Vector_2" d="M19.8734 23.3437H9.97339C9.22172 23.3437 8.59839 22.7346 8.59839 22C8.59839 21.2654 9.22172 20.6562 9.97339 20.6562H19.8734C20.6251 20.6562 21.2484 21.2654 21.2484 22C21.2484 22.7346 20.6251 23.3437 19.8734 23.3437Z" fill="white"/>
</g>
</g>
</svg>
