<svg width="31" height="30" viewBox="0 0 31 30" fill="none" xmlns="http://www.w3.org/2000/svg">
<g id="vuesax/outline/setting-2">
<g id="setting-2">
<path id="Vector" d="M15.5 19.6875C12.9125 19.6875 10.8125 17.5875 10.8125 15C10.8125 12.4125 12.9125 10.3125 15.5 10.3125C18.0875 10.3125 20.1875 12.4125 20.1875 15C20.1875 17.5875 18.0875 19.6875 15.5 19.6875ZM15.5 12.1875C13.95 12.1875 12.6875 13.45 12.6875 15C12.6875 16.55 13.95 17.8125 15.5 17.8125C17.05 17.8125 18.3125 16.55 18.3125 15C18.3125 13.45 17.05 12.1875 15.5 12.1875Z" fill="white"/>
<path id="Vector_2" d="M19.5125 27.7375C19.25 27.7375 18.9875 27.7 18.725 27.6375C17.95 27.425 17.3 26.9375 16.8875 26.25L16.7375 26C16 24.725 14.9875 24.725 14.25 26L14.1125 26.2375C13.7 26.9375 13.05 27.4375 12.275 27.6375C11.4875 27.85 10.675 27.7375 9.9875 27.325L7.8375 26.0875C7.075 25.65 6.525 24.9375 6.2875 24.075C6.0625 23.2125 6.175 22.325 6.6125 21.5625C6.975 20.925 7.075 20.35 6.8625 19.9875C6.65 19.625 6.1125 19.4125 5.375 19.4125C3.55 19.4125 2.0625 17.925 2.0625 16.1V13.9C2.0625 12.075 3.55 10.5875 5.375 10.5875C6.1125 10.5875 6.65 10.375 6.8625 10.0125C7.075 9.64999 6.9875 9.07499 6.6125 8.43749C6.175 7.67499 6.0625 6.77499 6.2875 5.92499C6.5125 5.06249 7.0625 4.34999 7.8375 3.91249L10 2.67499C11.4125 1.83749 13.275 2.32499 14.125 3.76249L14.275 4.01249C15.0125 5.28749 16.025 5.28749 16.7625 4.01249L16.9 3.77499C17.75 2.32499 19.6125 1.83749 21.0375 2.68749L23.1875 3.92499C23.95 4.36249 24.5 5.07499 24.7375 5.93749C24.9625 6.79999 24.85 7.68749 24.4125 8.44999C24.05 9.08749 23.95 9.66249 24.1625 10.025C24.375 10.3875 24.9125 10.6 25.65 10.6C27.475 10.6 28.9625 12.0875 28.9625 13.9125V16.1125C28.9625 17.9375 27.475 19.425 25.65 19.425C24.9125 19.425 24.375 19.6375 24.1625 20C23.95 20.3625 24.0375 20.9375 24.4125 21.575C24.85 22.3375 24.975 23.2375 24.7375 24.0875C24.5125 24.95 23.9625 25.6625 23.1875 26.1L21.025 27.3375C20.55 27.6 20.0375 27.7375 19.5125 27.7375ZM15.5 23.1125C16.6125 23.1125 17.65 23.8125 18.3625 25.05L18.5 25.2875C18.65 25.55 18.9 25.7375 19.2 25.8125C19.5 25.8875 19.8 25.85 20.05 25.7L22.2125 24.45C22.5375 24.2625 22.7875 23.95 22.8875 23.575C22.9875 23.2 22.9375 22.8125 22.75 22.4875C22.0375 21.2625 21.95 20 22.5 19.0375C23.05 18.075 24.1875 17.525 25.6125 17.525C26.4125 17.525 27.05 16.8875 27.05 16.0875V13.8875C27.05 13.1 26.4125 12.45 25.6125 12.45C24.1875 12.45 23.05 11.9 22.5 10.9375C21.95 9.97499 22.0375 8.71249 22.75 7.48749C22.9375 7.16249 22.9875 6.77499 22.8875 6.39999C22.7875 6.02499 22.55 5.72499 22.225 5.52499L20.0625 4.28749C19.525 3.96249 18.8125 4.14999 18.4875 4.69999L18.35 4.93749C17.6375 6.17499 16.6 6.87499 15.4875 6.87499C14.375 6.87499 13.3375 6.17499 12.625 4.93749L12.4875 4.68749C12.175 4.16249 11.475 3.97499 10.9375 4.28749L8.775 5.53749C8.45 5.72499 8.2 6.03749 8.1 6.41249C8 6.78749 8.05 7.17499 8.2375 7.49999C8.95 8.72499 9.0375 9.98749 8.4875 10.95C7.9375 11.9125 6.8 12.4625 5.375 12.4625C4.575 12.4625 3.9375 13.1 3.9375 13.9V16.1C3.9375 16.8875 4.575 17.5375 5.375 17.5375C6.8 17.5375 7.9375 18.0875 8.4875 19.05C9.0375 20.0125 8.95 21.275 8.2375 22.5C8.05 22.825 8 23.2125 8.1 23.5875C8.2 23.9625 8.4375 24.2625 8.7625 24.4625L10.925 25.7C11.1875 25.8625 11.5 25.9 11.7875 25.825C12.0875 25.75 12.3375 25.55 12.5 25.2875L12.6375 25.05C13.35 23.825 14.3875 23.1125 15.5 23.1125Z" fill="white"/>
</g>
</g>
</svg>
