<svg width="31" height="30" viewBox="0 0 31 30" fill="none" xmlns="http://www.w3.org/2000/svg">
<g id="vuesax/outline/setting-2">
<g id="setting-2">
<path id="Vector" d="M15.5 19.6875C12.9125 19.6875 10.8125 17.5875 10.8125 15C10.8125 12.4125 12.9125 10.3125 15.5 10.3125C18.0875 10.3125 20.1875 12.4125 20.1875 15C20.1875 17.5875 18.0875 19.6875 15.5 19.6875ZM15.5 12.1875C13.95 12.1875 12.6875 13.45 12.6875 15C12.6875 16.55 13.95 17.8125 15.5 17.8125C17.05 17.8125 18.3125 16.55 18.3125 15C18.3125 13.45 17.05 12.1875 15.5 12.1875Z" fill="#111111"/>
<path id="Vector_2" d="M19.5125 27.7376C19.25 27.7376 18.9875 27.7001 18.725 27.6376C17.95 27.4251 17.3 26.9376 16.8875 26.2501L16.7375 26.0001C16 24.7251 14.9875 24.7251 14.25 26.0001L14.1125 26.2376C13.7 26.9376 13.05 27.4376 12.275 27.6376C11.4875 27.8501 10.675 27.7376 9.9875 27.3251L7.8375 26.0876C7.075 25.6501 6.525 24.9376 6.2875 24.0751C6.0625 23.2126 6.175 22.3251 6.6125 21.5626C6.975 20.9251 7.075 20.3501 6.8625 19.9876C6.65 19.6251 6.1125 19.4126 5.375 19.4126C3.55 19.4126 2.0625 17.9251 2.0625 16.1001V13.9001C2.0625 12.0751 3.55 10.5876 5.375 10.5876C6.1125 10.5876 6.65 10.3751 6.8625 10.0126C7.075 9.65011 6.9875 9.07511 6.6125 8.43761C6.175 7.67511 6.0625 6.77511 6.2875 5.92511C6.5125 5.06261 7.0625 4.35011 7.8375 3.91261L10 2.67511C11.4125 1.83761 13.275 2.32511 14.125 3.76261L14.275 4.01261C15.0125 5.28761 16.025 5.28761 16.7625 4.01261L16.9 3.77511C17.75 2.32511 19.6125 1.83761 21.0375 2.68761L23.1875 3.92511C23.95 4.36261 24.5 5.07511 24.7375 5.93761C24.9625 6.80011 24.85 7.68761 24.4125 8.45011C24.05 9.08761 23.95 9.66261 24.1625 10.0251C24.375 10.3876 24.9125 10.6001 25.65 10.6001C27.475 10.6001 28.9625 12.0876 28.9625 13.9126V16.1126C28.9625 17.9376 27.475 19.4251 25.65 19.4251C24.9125 19.4251 24.375 19.6376 24.1625 20.0001C23.95 20.3626 24.0375 20.9376 24.4125 21.5751C24.85 22.3376 24.975 23.2376 24.7375 24.0876C24.5125 24.9501 23.9625 25.6626 23.1875 26.1001L21.025 27.3376C20.55 27.6001 20.0375 27.7376 19.5125 27.7376ZM15.5 23.1126C16.6125 23.1126 17.65 23.8126 18.3625 25.0501L18.5 25.2876C18.65 25.5501 18.9 25.7376 19.2 25.8126C19.5 25.8876 19.8 25.8501 20.05 25.7001L22.2125 24.4501C22.5375 24.2626 22.7875 23.9501 22.8875 23.5751C22.9875 23.2001 22.9375 22.8126 22.75 22.4876C22.0375 21.2626 21.95 20.0001 22.5 19.0376C23.05 18.0751 24.1875 17.5251 25.6125 17.5251C26.4125 17.5251 27.05 16.8876 27.05 16.0876V13.8876C27.05 13.1001 26.4125 12.4501 25.6125 12.4501C24.1875 12.4501 23.05 11.9001 22.5 10.9376C21.95 9.97511 22.0375 8.71261 22.75 7.48761C22.9375 7.16261 22.9875 6.77511 22.8875 6.40011C22.7875 6.02511 22.55 5.72511 22.225 5.52511L20.0625 4.28761C19.525 3.96261 18.8125 4.15011 18.4875 4.70011L18.35 4.93761C17.6375 6.17511 16.6 6.87511 15.4875 6.87511C14.375 6.87511 13.3375 6.17511 12.625 4.93761L12.4875 4.68761C12.175 4.16261 11.475 3.97511 10.9375 4.28761L8.775 5.53761C8.45 5.72511 8.2 6.03761 8.1 6.41261C8 6.78761 8.05 7.17511 8.2375 7.50011C8.95 8.72511 9.0375 9.98761 8.4875 10.9501C7.9375 11.9126 6.8 12.4626 5.375 12.4626C4.575 12.4626 3.9375 13.1001 3.9375 13.9001V16.1001C3.9375 16.8876 4.575 17.5376 5.375 17.5376C6.8 17.5376 7.9375 18.0876 8.4875 19.0501C9.0375 20.0126 8.95 21.2751 8.2375 22.5001C8.05 22.8251 8 23.2126 8.1 23.5876C8.2 23.9626 8.4375 24.2626 8.7625 24.4626L10.925 25.7001C11.1875 25.8626 11.5 25.9001 11.7875 25.8251C12.0875 25.7501 12.3375 25.5501 12.5 25.2876L12.6375 25.0501C13.35 23.8251 14.3875 23.1126 15.5 23.1126Z" fill="#111111"/>
</g>
</g>
</svg>
