<svg width="31" height="30" viewBox="0 0 31 30" fill="none" xmlns="http://www.w3.org/2000/svg">
<g id="vuesax/outline/message-question">
<g id="message-question">
<path id="Vector" d="M10.5 27.8999C10.15 27.8999 9.78748 27.8124 9.46248 27.6374C8.74998 27.2624 8.3125 26.5124 8.3125 25.7124V23.9375C4.5375 23.55 2.0625 20.7749 2.0625 16.7999V9.29993C2.0625 4.99993 4.95 2.11243 9.25 2.11243H21.75C26.05 2.11243 28.9375 4.99993 28.9375 9.29993V16.7999C28.9375 21.0998 26.05 23.9874 21.75 23.9874H17.0375L11.7125 27.5375C11.35 27.775 10.925 27.8999 10.5 27.8999ZM9.25 3.97491C6.025 3.97491 3.9375 6.06241 3.9375 9.28741V16.7875C3.9375 20.0125 6.025 22.1 9.25 22.1C9.7625 22.1 10.1875 22.525 10.1875 23.0375V25.7C10.1875 25.8625 10.2875 25.9375 10.35 25.975C10.4125 26.0125 10.5375 26.0499 10.675 25.9624L16.2375 22.2625C16.3875 22.1625 16.575 22.1 16.7625 22.1H21.7625C24.9875 22.1 27.075 20.0125 27.075 16.7875V9.28741C27.075 6.06241 24.9875 3.97491 21.7625 3.97491H9.25Z" fill="white"/>
<path id="Vector_2" d="M15.4998 15.1375C14.9873 15.1375 14.5623 14.7125 14.5623 14.2V13.9375C14.5623 12.4875 15.6247 11.775 16.0247 11.5C16.4872 11.1875 16.6372 10.975 16.6372 10.65C16.6372 10.025 16.1248 9.51245 15.4998 9.51245C14.8748 9.51245 14.3623 10.025 14.3623 10.65C14.3623 11.1625 13.9373 11.5875 13.4248 11.5875C12.9123 11.5875 12.4873 11.1625 12.4873 10.65C12.4873 8.98749 13.8373 7.63745 15.4998 7.63745C17.1623 7.63745 18.5122 8.98749 18.5122 10.65C18.5122 12.075 17.4623 12.7875 17.0748 13.05C16.5873 13.375 16.4373 13.5875 16.4373 13.9375V14.2C16.4373 14.725 16.0123 15.1375 15.4998 15.1375Z" fill="white"/>
<path id="Vector_3" d="M15.5 18.25C14.975 18.25 14.5625 17.825 14.5625 17.3125C14.5625 16.8 14.9875 16.375 15.5 16.375C16.0125 16.375 16.4375 16.8 16.4375 17.3125C16.4375 17.825 16.025 18.25 15.5 18.25Z" fill="white"/>
</g>
</g>
</svg>
